<svg xmlns="http://www.w3.org/2000/svg" xmlns:xlink="http://www.w3.org/1999/xlink" width="1080" zoomAndPan="magnify" viewBox="0 0 810 809.999993" height="1080" preserveAspectRatio="xMidYMid meet" version="1.0"><defs><clipPath id="fefcc2a6ee"><path d="M 231.429688 196.480469 L 578.679688 196.480469 L 578.679688 613.480469 L 231.429688 613.480469 Z M 231.429688 196.480469 " clip-rule="nonzero"/></clipPath><clipPath id="3b71227e1b"><path d="M 135.210938 135.210938 L 674.460938 135.210938 L 674.460938 674.460938 L 135.210938 674.460938 Z M 135.210938 135.210938 " clip-rule="nonzero"/></clipPath><clipPath id="c238033e2e"><path d="M 326.296875 602.109375 L 483.703125 602.109375 L 483.703125 646.96875 L 326.296875 646.96875 Z M 326.296875 602.109375 " clip-rule="nonzero"/></clipPath></defs><g clip-path="url(#fefcc2a6ee)"><path fill="#2f3b69" d="M 404.789062 -13.40625 C 190.839844 -13.40625 17.414062 160.023438 17.414062 373.96875 C 17.414062 587.917969 190.839844 761.34375 404.789062 761.34375 C 618.734375 761.34375 792.164062 587.917969 792.164062 373.96875 C 792.164062 160.023438 618.734375 -13.40625 404.789062 -13.40625 Z M 478.777344 602.289062 C 466.921875 604.574219 462.699219 597.292969 462.699219 591.015625 C 462.699219 583.308594 463.011719 558.050781 463.011719 526.671875 C 463.011719 504.785156 455.535156 490.492188 447.167969 483.25 C 499.191406 477.4375 553.851562 457.605469 553.851562 367.5 C 553.851562 341.894531 544.824219 320.9375 529.832031 304.550781 C 532.234375 298.625 540.253906 274.761719 527.507812 242.496094 C 527.507812 242.496094 507.945312 236.179688 463.320312 266.550781 C 444.648438 261.359375 424.660156 258.765625 404.828125 258.648438 C 384.953125 258.765625 364.964844 261.359375 346.332031 266.550781 C 301.707031 236.21875 282.105469 242.496094 282.105469 242.496094 C 269.402344 274.800781 277.417969 298.625 279.820312 304.550781 C 264.867188 320.9375 255.765625 341.894531 255.765625 367.5 C 255.765625 457.371094 310.308594 477.476562 362.175781 483.402344 C 355.515625 489.253906 349.472656 499.59375 347.339844 514.742188 C 334.015625 520.746094 300.199219 531.089844 279.355469 495.257812 C 279.355469 495.257812 267.039062 472.75 243.601562 471.085938 C 243.601562 471.085938 220.785156 470.773438 242.011719 485.339844 C 242.011719 485.339844 257.316406 492.546875 267.929688 519.660156 C 267.929688 519.660156 281.640625 565.292969 346.644531 551.117188 C 346.761719 570.679688 346.953125 585.4375 346.953125 591.015625 C 346.953125 597.214844 342.691406 604.457031 330.992188 602.328125 C 238.140625 571.296875 171.203125 483.402344 171.203125 379.78125 C 171.203125 250.203125 275.792969 145.226562 404.828125 145.226562 C 533.863281 145.226562 638.453125 250.242188 638.453125 379.78125 C 638.453125 483.363281 571.59375 571.222656 478.816406 602.289062 Z M 478.777344 602.289062 " fill-opacity="1" fill-rule="nonzero"/></g><g clip-path="url(#3b71227e1b)"><path fill="#2f3b69" d="M 404.835938 135.210938 C 255.867188 135.210938 135.210938 255.867188 135.210938 404.835938 C 135.210938 553.804688 255.867188 674.460938 404.835938 674.460938 C 553.804688 674.460938 674.460938 553.804688 674.460938 404.835938 C 674.460938 255.867188 553.804688 135.210938 404.835938 135.210938 Z M 404.835938 620.535156 C 285.660156 620.535156 189.136719 524.011719 189.136719 404.835938 C 189.136719 285.660156 285.660156 189.136719 404.835938 189.136719 C 524.011719 189.136719 620.535156 285.660156 620.535156 404.835938 C 620.535156 524.011719 524.011719 620.535156 404.835938 620.535156 Z M 404.835938 620.535156 " fill-opacity="1" fill-rule="nonzero"/></g><g clip-path="url(#c238033e2e)"><path fill="#2f3b69" d="M 326.296875 602.109375 L 483.867188 602.109375 L 483.867188 647.039062 L 326.296875 647.039062 Z M 326.296875 602.109375 " fill-opacity="1" fill-rule="nonzero"/></g></svg>