<svg xmlns="http://www.w3.org/2000/svg" xmlns:xlink="http://www.w3.org/1999/xlink" width="1080" zoomAndPan="magnify" viewBox="0 0 810 809.999993" height="1080" preserveAspectRatio="xMidYMid meet" version="1.0"><defs><clipPath id="b912f85868"><path d="M 146.746094 146.296875 L 662.160156 146.296875 L 662.160156 661.691406 L 146.746094 661.691406 Z M 146.746094 146.296875 " clip-rule="nonzero"/></clipPath></defs><g clip-path="url(#b912f85868)"><path fill="#2f3b69" d="M 404.320312 192.746094 C 473.144531 192.746094 481.214844 193.007812 508.441406 194.253906 C 533.503906 195.371094 547.214844 199.570312 556.335938 203.175781 C 568.339844 207.769531 576.933594 213.410156 585.921875 222.464844 C 594.976562 231.519531 600.488281 240.113281 605.277344 252.050781 C 608.757812 261.105469 612.957031 274.753906 614.199219 299.945312 C 615.382812 327.171875 615.644531 335.304688 615.644531 404.058594 C 615.644531 472.8125 615.382812 480.949219 614.199219 508.171875 C 613.019531 533.234375 608.886719 546.949219 605.277344 556.066406 C 600.621094 568.007812 594.976562 576.601562 585.921875 585.652344 C 576.933594 594.710938 568.339844 600.21875 556.335938 604.941406 C 547.28125 608.488281 533.636719 612.617188 508.441406 613.867188 C 481.214844 615.113281 473.144531 615.371094 404.320312 615.371094 C 335.5625 615.371094 327.429688 615.113281 300.203125 613.867188 C 275.140625 612.75 261.492188 608.550781 252.308594 604.941406 C 240.367188 600.351562 231.773438 594.710938 222.71875 585.652344 C 213.730469 576.601562 208.152344 568.007812 203.433594 556.066406 C 199.953125 547.011719 195.753906 533.367188 194.507812 508.171875 C 193.261719 480.949219 193.066406 472.8125 193.066406 404.058594 C 193.066406 335.304688 193.261719 327.171875 194.507812 299.945312 C 195.625 274.882812 199.824219 261.171875 203.433594 252.050781 C 208.023438 240.113281 213.730469 231.519531 222.71875 222.464844 C 231.773438 213.410156 240.367188 207.902344 252.308594 203.175781 C 261.363281 199.632812 275.011719 195.5 300.203125 194.253906 C 327.429688 193.007812 335.5625 192.746094 404.320312 192.746094 M 404.320312 146.363281 C 334.316406 146.363281 325.589844 146.6875 298.035156 147.9375 C 270.613281 149.183594 251.851562 153.578125 235.515625 159.878906 C 218.585938 166.4375 204.21875 175.230469 189.851562 189.597656 C 175.613281 203.964844 166.820312 218.265625 160.261719 235.257812 C 153.964844 251.59375 149.570312 270.355469 148.320312 297.78125 C 147.074219 325.203125 146.746094 334.0625 146.746094 403.925781 C 146.746094 473.996094 147.074219 482.652344 148.320312 510.210938 C 149.570312 537.632812 153.964844 556.394531 160.261719 572.796875 C 166.820312 589.722656 175.613281 604.089844 189.980469 618.390625 C 204.347656 632.761719 218.652344 641.550781 235.578125 648.113281 C 251.980469 654.410156 270.742188 658.804688 298.167969 660.050781 C 325.589844 661.296875 334.449219 661.625 404.453125 661.625 C 474.457031 661.625 483.183594 661.296875 510.738281 660.050781 C 538.160156 658.804688 556.925781 654.410156 573.261719 648.113281 C 590.253906 641.550781 604.554688 632.761719 618.925781 618.390625 C 633.226562 604.089844 642.085938 589.722656 648.644531 572.796875 C 654.941406 556.394531 659.335938 537.632812 660.585938 510.210938 C 661.832031 482.785156 662.160156 473.996094 662.160156 403.925781 C 662.160156 333.929688 661.832031 325.203125 660.585938 297.648438 C 659.335938 270.222656 654.941406 251.460938 648.644531 235.125 C 642.085938 218.199219 633.226562 203.832031 618.925781 189.464844 C 604.554688 175.164062 590.253906 166.308594 573.261719 159.8125 C 556.925781 153.445312 538.160156 149.050781 510.738281 147.804688 C 483.183594 146.6875 474.324219 146.363281 404.320312 146.363281 " fill-opacity="1" fill-rule="nonzero"/></g><path fill="#2f3b69" d="M 404.320312 271.734375 C 331.234375 271.734375 272.058594 330.910156 272.058594 403.925781 C 272.058594 477.011719 331.363281 536.320312 404.453125 536.320312 C 477.539062 536.320312 536.785156 477.144531 536.785156 403.925781 C 536.714844 330.910156 477.410156 271.734375 404.320312 271.734375 M 404.320312 489.871094 C 356.886719 489.871094 318.507812 451.492188 318.507812 404.058594 C 318.507812 356.628906 356.886719 318.246094 404.320312 318.246094 C 451.753906 318.246094 490.136719 356.628906 490.136719 404.058594 C 490.265625 451.359375 451.753906 489.871094 404.320312 489.871094 " fill-opacity="1" fill-rule="nonzero"/><path fill="#2f3b69" d="M 572.867188 266.488281 C 572.867188 283.542969 558.960938 297.453125 541.898438 297.453125 C 524.84375 297.453125 510.933594 283.542969 510.933594 266.488281 C 510.933594 249.429688 524.84375 235.585938 541.898438 235.585938 C 558.960938 235.585938 572.867188 249.363281 572.867188 266.488281 " fill-opacity="1" fill-rule="nonzero"/></svg>