<svg xmlns="http://www.w3.org/2000/svg" xmlns:xlink="http://www.w3.org/1999/xlink" width="1080" zoomAndPan="magnify" viewBox="0 0 810 809.999993" height="1080" preserveAspectRatio="xMidYMid meet" version="1.0"><defs><clipPath id="d7c3991468"><path d="M 146.535156 145 L 658.8125 145 L 658.8125 664 L 146.535156 664 Z M 146.535156 145 " clip-rule="nonzero"/></clipPath></defs><path fill="#2f3b69" d="M 422.089844 379.0625 L 422.089844 378.289062 C 421.949219 378.5 421.738281 378.78125 421.597656 379.0625 Z M 422.089844 379.0625 " fill-opacity="1" fill-rule="nonzero"/><g clip-path="url(#d7c3991468)"><path fill="#2f3b69" d="M 621.105469 145.148438 L 184.382812 145.148438 C 163.417969 145.148438 146.535156 161.75 146.535156 182.292969 L 146.535156 626.625 C 146.535156 647.167969 163.488281 663.769531 184.382812 663.769531 L 621.105469 663.769531 C 642.070312 663.769531 659.023438 647.097656 659.023438 626.625 L 659.023438 182.292969 C 659.023438 161.75 642.070312 145.148438 621.105469 145.148438 Z M 301.863281 579.28125 L 224.410156 579.28125 L 224.410156 345.082031 L 301.863281 345.082031 Z M 263.171875 313.144531 L 262.609375 313.144531 C 236.652344 313.144531 219.839844 295.132812 219.839844 272.621094 C 219.839844 249.6875 237.214844 232.171875 263.664062 232.171875 C 290.117188 232.171875 306.4375 249.6875 306.929688 272.621094 C 306.929688 295.132812 290.117188 313.144531 263.171875 313.144531 Z M 581.007812 579.28125 L 503.554688 579.28125 L 503.554688 453.984375 C 503.554688 422.539062 492.367188 401.011719 464.371094 401.011719 C 442.984375 401.011719 430.25 415.503906 424.621094 429.503906 C 422.582031 434.5 422.089844 441.464844 422.089844 448.5 L 422.089844 579.28125 L 344.707031 579.28125 C 344.707031 579.28125 345.691406 367.03125 344.707031 345.082031 L 422.089844 345.082031 L 422.089844 378.21875 C 432.359375 362.320312 450.792969 339.59375 491.875 339.59375 C 542.808594 339.59375 581.007812 373.082031 581.007812 444.980469 Z M 581.007812 579.28125 " fill-opacity="1" fill-rule="nonzero"/></g></svg>